<svg width="215" height="36" viewBox="0 0 215 36" fill="none" xmlns="http://www.w3.org/2000/svg">
<path d="M126.694 28.5757H131.84V17.71C131.84 15.6606 132.033 14.4619 132.536 13.5338C133.271 12.1031 134.587 11.3684 136.366 11.3684C139.384 11.3684 140.545 13.1085 140.545 17.6327V28.5757H145.69V16.4726C145.69 13.4565 145.342 11.7551 144.375 10.1697C142.982 7.88829 140.429 6.61225 137.295 6.61225C135.051 6.61225 133.387 7.23093 131.84 8.62299V0H126.694V28.5757Z" fill="#EB5757"/>
<path d="M170.023 7.1536H165.304V10.015C163.524 7.65628 161.396 6.65091 158.301 6.65091C151.956 6.65091 147.391 11.4071 147.391 17.942C147.391 24.3996 151.918 29.0784 158.185 29.0784C161.203 29.0784 163.253 28.1504 165.304 25.7916V28.5757H170.023V7.1536ZM158.765 11.3684C162.518 11.3684 165.149 14.0752 165.149 17.942C165.149 21.7701 162.634 24.3609 158.92 24.3609C155.167 24.3609 152.575 21.8088 152.575 18.058C152.575 14.1912 155.167 11.3684 158.765 11.3684Z" fill="#EB5757"/>
<path d="M188.102 21.5381C186.825 23.5102 185.355 24.3609 183.227 24.3609C179.668 24.3609 176.998 21.5768 176.998 17.826C176.998 14.0365 179.513 11.3684 183.111 11.3684C185.432 11.3684 187.057 12.2965 188.102 14.3072H193.905C193.17 12.2191 192.512 11.1364 191.158 9.8217C189.069 7.77229 186.167 6.65091 183.111 6.65091C176.766 6.65091 171.814 11.5618 171.814 17.8647C171.814 24.0902 176.921 29.0784 183.266 29.0784C188.295 29.0784 192.125 26.333 193.905 21.5381H188.102Z" fill="#EB5757"/>
<path d="M195.618 28.5757H200.764V18.5607L208.076 28.5757H215.001L206.102 17.6327L213.763 7.1536H207.611L200.764 17.246V0H195.618V28.5757Z" fill="#EB5757"/>
<path d="M0 28.5757H2.86291V24.9409C4.64255 27.5704 7.66021 29.0784 11.1421 29.0784C17.5256 29.0784 22.3229 24.3222 22.3229 17.9807C22.3229 11.7551 17.4483 6.92159 11.1808 6.92159C7.62152 6.92159 4.68124 8.39098 2.86291 11.0591V0H0V28.5757ZM10.9874 9.55102C15.8621 9.55102 19.4213 13.0698 19.4213 17.942C19.4213 22.8142 15.8234 26.449 11.0647 26.449C6.38351 26.449 2.66947 22.6982 2.66947 18.0193C2.66947 13.2632 6.30613 9.55102 10.9874 9.55102Z" fill="black"/>
<path d="M46.1905 18.9474C46.1905 16.1246 45.8424 14.4619 44.9138 12.6831C43.0568 9.12567 39.3041 6.92159 35.1258 6.92159C29.0131 6.92159 24.1771 11.7551 24.1771 17.9033C24.1771 24.1676 29.0905 29.0784 35.3579 29.0784C39.9618 29.0784 44.1014 26.0623 45.6489 21.6155H42.6699C41.4706 24.5156 38.4916 26.449 35.2805 26.449C30.9088 26.449 27.2721 23.1235 27.04 18.9474H46.1905ZM27.1174 16.3566C27.8912 12.2965 31.1023 9.55102 35.1258 9.55102C39.2267 9.55102 42.3604 12.1418 43.3276 16.3566H27.1174Z" fill="black"/>
<path d="M70.3193 7.42427H67.4564V11.1751C65.3285 8.19764 62.7751 6.92159 59.0998 6.92159C52.755 6.92159 47.9577 11.7164 47.9577 18.058C47.9577 24.3996 52.7937 29.0784 59.3319 29.0784C62.9299 29.0784 65.2125 27.8797 67.4564 24.8636V28.5757H70.3193V7.42427ZM59.0611 9.55102C63.8584 9.55102 67.4564 13.1472 67.4564 17.942C67.4564 22.7368 63.8971 26.449 59.2932 26.449C54.612 26.449 50.8593 22.6982 50.8593 17.942C50.8593 13.3018 54.5346 9.55102 59.0611 9.55102Z" fill="black"/>
<path d="M92.445 7.42427H89.5821V18.29C89.5821 20.8808 89.1952 22.5048 88.3054 23.8195C87.1061 25.5209 85.2104 26.449 82.9665 26.449C80.6839 26.449 78.7495 25.5209 77.7436 23.9356C77.0085 22.8142 76.6604 21.0741 76.6604 18.8314V7.42427H73.7975V18.8314C73.7975 21.8861 74.2617 23.9742 75.345 25.5209C76.8925 27.841 79.4846 29.0784 82.7731 29.0784C86.0615 29.0784 88.1507 27.9184 89.5821 25.2889V28.5757H92.445V7.42427Z" fill="black"/>
<path d="M98.5455 28.5757H101.408V10.015H106.167V7.42427H101.408V0H98.5455V7.42427H93.9803V10.015H98.5455V28.5757Z" fill="black"/>
<path d="M110.351 36H113.408L125.633 7.42427H122.577L115.419 24.2836L108.726 7.42427H105.593L113.794 27.8797L110.351 36Z" fill="black"/>
</svg>
