<svg width="110" height="19" viewBox="0 0 110 19" fill="none" xmlns="http://www.w3.org/2000/svg">
<path d="M65.124 14.9999C65.124 14.9999 65.124 10.1733 65.124 0.52002C65.124 0.52002 65.9917 0.52002 67.7271 0.52002C67.7271 0.52002 67.7271 1.97471 67.7271 4.88408C68.4736 4.20778 69.3956 3.86963 70.493 3.86963C71.2905 3.86963 71.9987 4.02594 72.6176 4.33857C73.2428 4.64482 73.7309 5.08825 74.0818 5.66885C74.3243 6.0708 74.4934 6.51104 74.5891 6.98955C74.6911 7.46807 74.7422 8.09333 74.7422 8.86533V14.9999H72.1391C72.1391 14.9999 72.1391 13.1496 72.1391 9.44912C72.1391 8.30068 71.9764 7.48721 71.651 7.00869C71.332 6.5238 70.7896 6.28135 70.024 6.28135C69.0989 6.28135 68.4513 6.64502 68.0812 7.37236C67.8452 7.79984 67.7271 8.50804 67.7271 9.49697V14.9999C67.7271 14.9999 66.8594 14.9999 65.124 14.9999Z" fill="#EB5757"/>
<path d="M87.0674 4.1376C87.0674 4.1376 87.0674 7.75837 87.0674 14.9999C87.0674 14.9999 86.2731 14.9999 84.6844 14.9999C84.6844 14.9999 84.6844 14.531 84.6844 13.5931C84.1612 14.1864 83.6189 14.6139 83.0574 14.8755C82.5023 15.1307 81.842 15.2583 81.0764 15.2583C80.03 15.2583 79.0889 15.019 78.2531 14.5405C77.4237 14.0556 76.7729 13.3825 76.3008 12.5212C75.835 11.6599 75.6021 10.6901 75.6021 9.61182C75.6021 8.5208 75.8382 7.54144 76.3104 6.67373C76.7825 5.79964 77.4396 5.11696 78.2818 4.62568C79.124 4.13441 80.0747 3.88877 81.1338 3.88877C81.9186 3.88877 82.5949 4.02594 83.1627 4.30029C83.7305 4.56826 84.2378 4.99893 84.6844 5.59229V4.1376H87.0674ZM81.3635 6.28135C80.4575 6.28135 79.7078 6.60036 79.1145 7.23838C78.5275 7.8764 78.234 8.68669 78.234 9.66924C78.234 10.6199 78.5307 11.3919 79.124 11.9853C79.7238 12.5722 80.499 12.8657 81.4496 12.8657C82.3939 12.8657 83.1531 12.5659 83.7273 11.9661C84.3079 11.3664 84.5982 10.5816 84.5982 9.61182C84.5982 8.62926 84.2952 7.82855 83.6891 7.20967C83.0893 6.59079 82.3141 6.28135 81.3635 6.28135Z" fill="#EB5757"/>
<path d="M96.2344 11.4302C96.2344 11.4302 97.2137 11.4302 99.1725 11.4302C98.7195 12.6488 98.024 13.5931 97.0861 14.263C96.1546 14.9265 95.054 15.2583 93.7844 15.2583C92.9932 15.2583 92.2372 15.1084 91.5162 14.8085C90.8016 14.5086 90.1859 14.1067 89.6691 13.6026C89.1523 13.0986 88.7408 12.4957 88.4346 11.7938C88.1283 11.092 87.9752 10.3519 87.9752 9.57353C87.9752 8.52718 88.2272 7.57015 88.7313 6.70244C89.2353 5.82835 89.9244 5.14248 90.7984 4.64482C91.6789 4.14079 92.6455 3.88877 93.6982 3.88877C94.4766 3.88877 95.2167 4.02913 95.9186 4.30986C96.6268 4.58421 97.2456 4.97979 97.7752 5.49658C98.1197 5.83473 98.3909 6.1665 98.5887 6.49189C98.7928 6.81091 98.9874 7.23519 99.1725 7.76475H96.2344C95.724 6.77581 94.8786 6.28135 93.6982 6.28135C92.7923 6.28135 92.049 6.5876 91.4684 7.2001C90.8941 7.80622 90.607 8.59098 90.607 9.55439C90.607 10.505 90.9069 11.2962 91.5066 11.9278C92.1128 12.5531 92.8656 12.8657 93.7652 12.8657C94.3012 12.8657 94.7637 12.7509 95.1529 12.5212C95.5485 12.2915 95.909 11.9278 96.2344 11.4302Z" fill="#EB5757"/>
<path d="M100.042 14.9999C100.042 14.9999 100.042 10.1733 100.042 0.52002C100.042 0.52002 100.91 0.52002 102.645 0.52002C102.645 0.52002 102.645 3.43258 102.645 9.25772C102.645 9.25772 103.8 7.55101 106.11 4.1376C106.11 4.1376 107.15 4.1376 109.229 4.1376C109.229 4.1376 107.938 5.90811 105.354 9.44912C105.354 9.44912 106.856 11.2994 109.861 14.9999C109.861 14.9999 108.69 14.9999 106.349 14.9999C106.349 14.9999 105.114 13.3091 102.645 9.92764C102.645 9.92764 102.645 11.6184 102.645 14.9999C102.645 14.9999 101.777 14.9999 100.042 14.9999Z" fill="#EB5757"/>
<path d="M0.93457 14.9999C0.93457 14.9999 0.93457 10.1733 0.93457 0.52002C0.93457 0.52002 1.41947 0.52002 2.38926 0.52002C2.38926 0.52002 2.38926 2.38623 2.38926 6.11865C2.84863 5.44235 3.4388 4.92555 4.15977 4.56826C4.88711 4.20459 5.70059 4.02275 6.6002 4.02275C7.37858 4.02275 8.1155 4.1695 8.81094 4.46299C9.51276 4.7501 10.1125 5.14248 10.6102 5.64014C11.1142 6.13779 11.513 6.73434 11.8064 7.42979C12.0999 8.11885 12.2467 8.85257 12.2467 9.63096C12.2467 10.6901 12.001 11.6503 11.5098 12.5116C11.0185 13.3666 10.339 14.0397 9.47129 14.531C8.60996 15.0159 7.64655 15.2583 6.58105 15.2583C5.70059 15.2583 4.89349 15.0733 4.15977 14.7032C3.43242 14.3332 2.84225 13.8164 2.38926 13.1528V14.9999H0.93457ZM6.50449 5.35303C5.31777 5.35303 4.31608 5.76774 3.49941 6.59717C2.68913 7.4266 2.28398 8.44424 2.28398 9.6501C2.28398 10.8368 2.69551 11.8449 3.51855 12.6743C4.34798 13.5037 5.35605 13.9185 6.54277 13.9185C7.74863 13.9185 8.75352 13.5101 9.55742 12.6935C10.3677 11.8704 10.7729 10.8432 10.7729 9.61182C10.7729 8.38044 10.3709 7.36279 9.56699 6.55889C8.76309 5.75498 7.74225 5.35303 6.50449 5.35303Z" fill="black"/>
<path d="M24.3326 10.119C24.3326 10.119 21.101 10.119 14.6379 10.119C14.6953 11.1782 15.1292 12.0778 15.9395 12.8179C16.7497 13.5516 17.7068 13.9185 18.8105 13.9185C19.6272 13.9185 20.3801 13.6951 21.0691 13.2485C21.7582 12.7955 22.2527 12.2022 22.5525 11.4685H24.0646C23.6691 12.5978 22.9928 13.5133 22.0357 14.2151C21.0787 14.9106 20.0164 15.2583 18.8488 15.2583C18.0704 15.2583 17.3303 15.1116 16.6285 14.8181C15.9267 14.5246 15.3238 14.1258 14.8197 13.6218C14.3157 13.1177 13.9169 12.5148 13.6234 11.813C13.3299 11.1112 13.1832 10.3711 13.1832 9.59268C13.1832 8.57184 13.4288 7.63395 13.9201 6.779C14.4114 5.92406 15.0813 5.25094 15.9299 4.75967C16.7785 4.26839 17.7132 4.02275 18.734 4.02275C19.7931 4.02275 20.7661 4.28434 21.6529 4.80752C22.5462 5.3307 23.2257 6.04209 23.6914 6.9417C23.9275 7.39469 24.0934 7.86045 24.1891 8.33896C24.2848 8.8111 24.3326 9.40446 24.3326 10.119ZM14.6762 8.80791H22.8875C22.6451 7.74242 22.1506 6.90023 21.4041 6.28135C20.664 5.66247 19.774 5.35303 18.734 5.35303C17.7195 5.35303 16.8391 5.67204 16.0926 6.31006C15.3461 6.9417 14.874 7.77432 14.6762 8.80791Z" fill="black"/>
<path d="M36.5621 4.28115C36.5621 4.28115 36.5621 7.85407 36.5621 14.9999C36.5621 14.9999 36.0772 14.9999 35.1074 14.9999C35.1074 14.9999 35.1074 14.3715 35.1074 13.1146C34.5396 13.8802 33.9367 14.4289 33.2986 14.7606C32.667 15.0924 31.8982 15.2583 30.9922 15.2583C29.9012 15.2583 28.9154 15.019 28.035 14.5405C27.1609 14.0556 26.475 13.3889 25.9773 12.5403C25.4797 11.6854 25.2309 10.7284 25.2309 9.66924C25.2309 8.61012 25.4765 7.6499 25.9678 6.78857C26.459 5.92725 27.1354 5.25094 27.9967 4.75967C28.858 4.26839 29.8182 4.02275 30.8773 4.02275C31.8152 4.02275 32.6191 4.19502 33.2891 4.53955C33.9654 4.8777 34.5715 5.42321 35.1074 6.17607V4.28115H36.5621ZM30.8582 5.35303C29.7098 5.35303 28.7304 5.76774 27.9201 6.59717C27.1098 7.4266 26.7047 8.43148 26.7047 9.61182C26.7047 10.8177 27.1194 11.8385 27.9488 12.6743C28.7783 13.5037 29.7863 13.9185 30.973 13.9185C32.1406 13.9185 33.12 13.5069 33.9111 12.6839C34.7087 11.8545 35.1074 10.8304 35.1074 9.61182C35.1074 8.3932 34.7023 7.37874 33.892 6.56846C33.0817 5.75817 32.0704 5.35303 30.8582 5.35303Z" fill="black"/>
<path d="M47.7676 4.28115C47.7676 4.28115 47.7676 7.85407 47.7676 14.9999C47.7676 14.9999 47.2859 14.9999 46.3225 14.9999C46.3225 14.9999 46.3225 14.4448 46.3225 13.3347C45.9588 13.9982 45.4994 14.4863 44.9443 14.7989C44.3893 15.1052 43.697 15.2583 42.8676 15.2583C42.0382 15.2583 41.3012 15.1052 40.6568 14.7989C40.0188 14.4863 39.502 14.0365 39.1064 13.4495C38.5833 12.6966 38.3217 11.5674 38.3217 10.0616V4.28115C38.3217 4.28115 38.8066 4.28115 39.7764 4.28115C39.7764 4.28115 39.7764 6.20798 39.7764 10.0616C39.7764 11.2356 39.9582 12.0969 40.3219 12.6456C40.5771 13.0476 40.9344 13.3602 41.3938 13.5835C41.8595 13.8068 42.3827 13.9185 42.9633 13.9185C43.5311 13.9185 44.0479 13.8036 44.5137 13.5739C44.9858 13.3442 45.3718 13.0157 45.6717 12.5882C46.1055 11.9438 46.3225 11.0091 46.3225 9.78408V4.28115H47.7676Z" fill="black"/>
<path d="M50.8574 14.9999C50.8574 14.9999 50.8574 11.864 50.8574 5.59229C50.8574 5.59229 50.0886 5.59229 48.551 5.59229C48.551 5.59229 48.551 5.15524 48.551 4.28115C48.551 4.28115 49.3198 4.28115 50.8574 4.28115C50.8574 4.28115 50.8574 3.02744 50.8574 0.52002C50.8574 0.52002 51.3423 0.52002 52.3121 0.52002C52.3121 0.52002 52.3121 1.77373 52.3121 4.28115C52.3121 4.28115 53.116 4.28115 54.7238 4.28115C54.7238 4.28115 54.7238 4.7182 54.7238 5.59229C54.7238 5.59229 53.9199 5.59229 52.3121 5.59229C52.3121 5.59229 52.3121 8.72816 52.3121 14.9999C52.3121 14.9999 51.8272 14.9999 50.8574 14.9999Z" fill="black"/>
<path d="M56.8375 18.761C56.8375 18.761 57.4213 17.3893 58.5889 14.6458C58.5889 14.6458 57.2012 11.1909 54.4258 4.28115C54.4258 4.28115 54.9553 4.28115 56.0145 4.28115C56.0145 4.28115 57.1469 7.12992 59.4119 12.8274C59.4119 12.8274 60.621 9.97868 63.0391 4.28115C63.0391 4.28115 63.5527 4.28115 64.5799 4.28115C64.5799 4.28115 62.5159 9.10778 58.3879 18.761C58.3879 18.761 57.8711 18.761 56.8375 18.761Z" fill="black"/>
</svg>
